<svg version="1.1" xmlns="http://www.w3.org/2000/svg" xmlns:xlink="http://www.w3.org/1999/xlink" width="122.88px" height="122.39px" viewBox="0,0,256,254.97501"><g fill="none" fill-rule="evenodd" stroke="none" stroke-width="1" stroke-linecap="butt" stroke-linejoin="miter" stroke-miterlimit="10" stroke-dasharray="" stroke-dashoffset="0" font-family="none" font-weight="none" font-size="none" text-anchor="none" style="mix-blend-mode: normal"><g transform="translate(0,-0.02291) scale(2.08333,2.08333)"><path d="M27.4,0h68.08c15.11437,0.04394 27.35606,12.28563 27.4,27.4v67.6c-0.03845,15.11827 -12.28174,27.36604 -27.4,27.41h-68.08c-15.11826,-0.04396 -27.36155,-12.29173 -27.4,-27.41v-67.6c0.04394,-15.11437 12.28563,-27.35606 27.4,-27.4z" fill="#ffffff"></path><path d="M37.07,32.34c7.95842,0 14.41,6.45158 14.41,14.41c0,7.95842 -6.45158,14.41 -14.41,14.41c-7.95842,0 -14.41,-6.45158 -14.41,-14.41c0,-7.95842 6.45158,-14.41 14.41,-14.41z" fill-opacity="0.96078" fill="#dedede"></path><path d="M85.74,32.34c7.95842,0 14.41,6.45158 14.41,14.41c0,7.95842 -6.45158,14.41 -14.41,14.41c-7.95842,0 -14.41,-6.45158 -14.41,-14.41c0,-7.95842 6.45158,-14.41 14.41,-14.41z" fill-opacity="0.96078" fill="#dedede"></path></g></g></svg>